<svg width="50" height="50" viewBox="0 0 50 50" fill="none" xmlns="http://www.w3.org/2000/svg">
<circle cx="25" cy="25" r="23.5" stroke="white" stroke-width="3"/>
<path d="M32.8672 29.1236L31.8841 27.9269C31.2724 27.1734 30.9447 26.2205 30.9447 25.2454V23.0071C30.9447 19.7716 28.5415 17.0901 25.4611 16.6912V15.5832C25.4611 15.14 25.1115 14.7854 24.6746 14.7854C24.2376 14.7854 23.8881 15.14 23.8881 15.5832V16.6912C20.8076 17.0901 18.4045 19.7716 18.4045 23.0071V25.2454C18.4045 26.2205 18.0768 27.1734 17.465 27.9269L16.5038 29.1236C16.0013 29.7441 15.8921 30.6084 16.2416 31.3397C16.5912 32.071 17.2903 32.5364 18.0986 32.5364H21.1135C21.2883 34.3979 22.8176 35.8384 24.6964 35.8384C26.5753 35.8384 28.1046 34.3757 28.2793 32.5364H31.2942C32.1026 32.5364 32.8017 32.071 33.1512 31.3397C33.4571 30.6084 33.3697 29.7663 32.8672 29.1236ZM24.6746 34.2428C23.6696 34.2428 22.8394 33.4893 22.6865 32.5142H26.6626C26.5097 33.4893 25.6795 34.2428 24.6746 34.2428ZM31.7093 30.6527C31.6656 30.7413 31.5564 30.9408 31.2724 30.9408H18.0768C17.7927 30.9408 17.6835 30.7413 17.6398 30.6527C17.5961 30.564 17.5306 30.3424 17.7054 30.1208L18.6666 28.9241C19.4968 27.8826 19.9556 26.5751 19.9556 25.2232V23.0071C19.9775 20.37 22.0748 18.2204 24.6746 18.2204C27.2744 18.2204 29.3717 20.37 29.3717 22.985V25.2232C29.3717 26.5751 29.8305 27.8826 30.6607 28.9241L31.6219 30.1208C31.8185 30.3424 31.753 30.564 31.7093 30.6527Z" fill="#F7F7F7" stroke="white"/>
</svg>
