<svg width="24" height="24" viewBox="0 0 24 24" fill="none" xmlns="http://www.w3.org/2000/svg">
<g filter="url(#filter0_d)">
<circle cx="12" cy="12" r="10" fill="white"/>
<path d="M17.9906 14.2158L17.2901 13.3632C16.8543 12.8263 16.6208 12.1474 16.6208 11.4526V9.85789C16.6208 7.55263 14.9085 5.64211 12.7138 5.35789V4.56842C12.7138 4.25263 12.4647 4 12.1534 4C11.8421 4 11.593 4.25263 11.593 4.56842V5.35789C9.39825 5.64211 7.68602 7.55263 7.68602 9.85789V11.4526C7.68602 12.1474 7.45253 12.8263 7.01669 13.3632L6.3318 14.2158C5.97379 14.6579 5.89596 15.2737 6.14501 15.7947C6.39406 16.3158 6.89217 16.6474 7.4681 16.6474H9.61617C9.7407 17.9737 10.8303 19 12.169 19C13.5076 19 14.5972 17.9579 14.7217 16.6474H16.8698C17.4458 16.6474 17.9439 16.3158 18.1929 15.7947C18.4108 15.2737 18.3486 14.6737 17.9906 14.2158ZM12.1534 17.8632C11.4374 17.8632 10.8459 17.3263 10.7369 16.6316H13.5699C13.4609 17.3263 12.8694 17.8632 12.1534 17.8632ZM17.1656 15.3053C17.1344 15.3684 17.0566 15.5105 16.8543 15.5105H7.45253C7.25018 15.5105 7.17235 15.3684 7.14122 15.3053C7.11009 15.2421 7.06339 15.0842 7.18791 14.9263L7.87281 14.0737C8.46431 13.3316 8.79119 12.4 8.79119 11.4368V9.85789C8.80675 7.97895 10.3011 6.44737 12.1534 6.44737C14.0057 6.44737 15.5 7.97895 15.5 9.8421V11.4368C15.5 12.4 15.8269 13.3316 16.4184 14.0737L17.1033 14.9263C17.2434 15.0842 17.1967 15.2421 17.1656 15.3053Z" fill="#FF416C"/>
</g>
<defs>
<filter id="filter0_d" x="0" y="0" width="24" height="24" filterUnits="userSpaceOnUse" color-interpolation-filters="sRGB">
<feFlood flood-opacity="0" result="BackgroundImageFix"/>
<feColorMatrix in="SourceAlpha" type="matrix" values="0 0 0 0 0 0 0 0 0 0 0 0 0 0 0 0 0 0 127 0" result="hardAlpha"/>
<feOffset/>
<feGaussianBlur stdDeviation="1"/>
<feComposite in2="hardAlpha" operator="out"/>
<feColorMatrix type="matrix" values="0 0 0 0 0 0 0 0 0 0 0 0 0 0 0 0 0 0 0.25 0"/>
<feBlend mode="normal" in2="BackgroundImageFix" result="effect1_dropShadow"/>
<feBlend mode="normal" in="SourceGraphic" in2="effect1_dropShadow" result="shape"/>
</filter>
</defs>
</svg>
