<svg width="19" height="19" viewBox="0 0 19 19" fill="none" xmlns="http://www.w3.org/2000/svg">
<path d="M15.4339 1H3.56607C2.88574 1.00079 2.2335 1.27528 1.75244 1.76326C1.27138 2.25124 1.00078 2.91286 1 3.60297V15.6413C1.00078 16.3314 1.27138 16.993 1.75244 17.481C2.2335 17.969 2.88574 18.2435 3.56607 18.2443H15.4339C16.1143 18.2435 16.7665 17.969 17.2476 17.481C17.7286 16.993 17.9992 16.3314 18 15.6413V3.60297C17.9992 2.91286 17.7286 2.25124 17.2476 1.76326C16.7665 1.27528 16.1143 1.00079 15.4339 1ZM1.76297 3.60297C1.76348 3.11804 1.95361 2.65312 2.29165 2.31022C2.62968 1.96732 3.08801 1.77446 3.56607 1.77394H15.4339C15.912 1.77446 16.3703 1.96732 16.7084 2.31022C17.0464 2.65312 17.2365 3.11804 17.237 3.60297V12.2334L14.5506 9.81222C14.4769 9.7454 14.3803 9.71036 14.2815 9.71452C14.1827 9.71869 14.0893 9.76173 14.0213 9.83452L11.4885 12.5314L8.99604 9.83641C8.96056 9.79807 8.91775 9.76747 8.87023 9.74648C8.8227 9.7255 8.77145 9.71456 8.71962 9.71435H8.71775C8.6662 9.71434 8.61519 9.72492 8.56778 9.74544C8.52037 9.76596 8.47754 9.79601 8.44189 9.83377L2.04798 16.6197C1.86263 16.328 1.76371 15.9884 1.76297 15.6413V3.60297ZM2.58395 17.1715L8.71514 10.664L15.0096 17.4703H3.56607C3.21697 17.47 2.87559 17.3662 2.58395 17.1715ZM15.9709 17.3782L12.011 13.0964L14.3193 10.6387L17.237 13.2683V15.6413C17.2357 16.0298 17.1122 16.4078 16.8845 16.7202C16.6568 17.0325 16.3367 17.2631 15.9709 17.3782H15.9709Z" fill="#FF416C" stroke="#FF416C" stroke-width="0.5"/>
<path d="M10.8434 8.06262C11.2166 8.06258 11.5815 7.95028 11.8918 7.73991C12.2021 7.52954 12.444 7.23055 12.5868 6.88075C12.7296 6.53095 12.7669 6.14606 12.694 5.77474C12.6212 5.40342 12.4414 5.06235 12.1775 4.79467C11.9135 4.52698 11.5773 4.3447 11.2112 4.27088C10.8451 4.19705 10.4657 4.235 10.1208 4.37992C9.77603 4.52484 9.48132 4.77022 9.27399 5.08504C9.06666 5.39985 8.95602 5.76996 8.95605 6.14857C8.9566 6.6561 9.15563 7.14268 9.50947 7.50153C9.8633 7.86038 10.343 8.06217 10.8434 8.06262ZM10.8434 5.00807C11.0657 5.00811 11.283 5.07501 11.4679 5.20032C11.6527 5.32564 11.7968 5.50373 11.8818 5.71209C11.9669 5.92044 11.9891 6.14971 11.9458 6.37089C11.9024 6.59207 11.7953 6.79523 11.6381 6.9547C11.4809 7.11416 11.2806 7.22276 11.0626 7.26677C10.8445 7.31077 10.6185 7.28821 10.4131 7.20192C10.2077 7.11564 10.0321 6.96951 9.90857 6.78202C9.78503 6.59452 9.71907 6.37408 9.71903 6.14857C9.7193 5.84617 9.83785 5.55624 10.0486 5.34241C10.2594 5.12859 10.5453 5.00834 10.8434 5.00807Z" fill="#FF416C" stroke="#FF416C" stroke-width="0.5"/>
</svg>
