<svg width="25" height="20" viewBox="0 0 25 20" fill="none" xmlns="http://www.w3.org/2000/svg">
<path d="M23.7208 5.22341C23.2251 4.94225 22.6275 4.97553 22.1625 5.31265L19.677 7.11085V5.29967C19.677 2.92875 17.8723 1 15.6538 1H5.02323C2.80474 1 1 2.92875 1 5.29967V14.9592C1 17.3299 2.80474 19.2587 5.02323 19.2587H15.6538C17.8723 19.2587 19.677 17.3299 19.677 14.9592V13.1478L22.1625 14.946C22.6275 15.2824 23.2253 15.3164 23.7208 15.0352C24.2167 14.7538 24.5248 14.2064 24.5248 13.6063V6.65239C24.5248 6.05228 24.2167 5.50482 23.7208 5.22341ZM23.62 13.6063C23.62 13.8513 23.4992 14.0661 23.2966 14.1811C23.0941 14.2956 22.8597 14.2824 22.6697 14.1452L18.7722 11.3258V14.9592C18.7722 16.7968 17.3732 18.2917 15.6538 18.2917H5.02323C3.30375 18.2917 1.9048 16.7968 1.9048 14.9592V5.29967C1.9048 3.46204 3.30375 1.96697 5.02323 1.96697H15.6538C17.3732 1.96697 18.7722 3.46204 18.7722 5.29967V8.93289L22.6697 6.11342C22.8597 5.9765 23.0943 5.96328 23.2966 6.07754C23.4992 6.19251 23.62 6.40734 23.62 6.65239V13.6063Z" fill="#FF416C" stroke="#FF416D" stroke-width="0.5"/>
<path d="M10.1044 5.87354C7.43749 5.87354 4.9473 7.41134 3.60556 9.88684L3.47412 10.1293L3.60556 10.3717C4.9473 12.8472 7.43749 14.3851 10.1044 14.3851C12.7713 14.3851 15.2615 12.8472 16.6032 10.3717L16.7347 10.1293L16.6032 9.88684C15.2615 7.41134 12.7713 5.87354 10.1044 5.87354ZM10.1044 13.4181C7.84748 13.4181 5.73414 12.1648 4.52604 10.1293C5.73414 8.09384 7.84748 6.84051 10.1044 6.84051C12.3613 6.84051 14.4747 8.09384 15.6828 10.1293C14.4747 12.1648 12.3613 13.4181 10.1044 13.4181Z" fill="#FF416C" stroke="#FF416D" stroke-width="0.5"/>
<path d="M10.1047 7.23035C8.60901 7.23035 7.39209 8.53089 7.39209 10.1294C7.39209 11.7278 8.60901 13.0284 10.1047 13.0284C11.6004 13.0284 12.8173 11.7278 12.8173 10.1294C12.8173 8.53089 11.6004 7.23035 10.1047 7.23035ZM10.1047 12.0614C9.1078 12.0614 8.29688 11.1948 8.29688 10.1294C8.29688 9.06396 9.1078 8.19732 10.1047 8.19732C11.1016 8.19732 11.9125 9.06396 11.9125 10.1294C11.9125 11.1948 11.1016 12.0614 10.1047 12.0614Z" fill="#FF416C" stroke="#FF416D" stroke-width="0.5"/>
</svg>
