<svg width="25" height="24" viewBox="0 0 25 24" fill="none" xmlns="http://www.w3.org/2000/svg">
<path d="M7.97666 4.43599C7.87855 4.29912 7.73986 4.20265 7.58072 4.15886C7.55722 4.1524 7.53343 4.14701 7.50909 4.14287C7.32008 4.11084 7.13086 4.15494 6.97623 4.26663C6.82183 4.37839 6.72017 4.54484 6.69049 4.73482C6.66075 4.92502 6.70655 5.11626 6.81903 5.27334C6.93151 5.43043 7.09774 5.53563 7.2866 5.56646C7.47561 5.5985 7.66483 5.5544 7.81946 5.4427C7.97408 5.33101 8.07552 5.16449 8.1052 4.97451C8.13494 4.78431 8.08935 4.59314 7.97666 4.43599Z" stroke="#FF416C" stroke-width="0.5"/>
<path d="M20.4686 14.7083L12.2613 3.2619C12.0438 2.95843 11.7314 2.7422 11.3798 2.64545C11.2944 2.62195 11.207 2.60556 11.1178 2.59658L6.69485 2.15357C5.90575 2.07322 5.18017 2.59791 5.00604 3.37444L4.02246 7.72901C3.92081 8.17805 4.01783 8.65203 4.28841 9.02932L12.4958 20.4757C13.0115 21.1949 14.0063 21.3642 14.7135 20.8525L20.1218 16.9405C20.8286 16.4293 20.9843 15.4277 20.4686 14.7083ZM8.2705 6.14012C7.87465 6.42646 7.38782 6.49733 6.94739 6.37614C6.60958 6.28319 6.29911 6.07746 6.07809 5.76885C5.56844 5.05824 5.7231 4.0685 6.42257 3.56241C7.12182 3.05625 8.10544 3.22264 8.61503 3.93346C8.86192 4.27753 8.96189 4.69682 8.89688 5.11344C8.83198 5.53056 8.60938 5.895 8.2705 6.14012Z" stroke="#FF416C" stroke-width="0.5"/>
<path d="M21.1587 14.2094L12.951 2.76268C12.5355 2.18292 11.8943 1.8098 11.1928 1.74007L6.77065 1.29707C5.55752 1.17343 4.44087 1.98116 4.17328 3.17534L3.18985 7.52935C3.03372 8.22004 3.18262 8.94868 3.59817 9.52844L11.8057 20.9751C12.1501 21.4554 12.6333 21.776 13.1591 21.9206C13.8438 22.109 14.6008 21.9989 15.2159 21.5539L20.6244 17.6416C21.7117 16.8551 21.9516 15.3154 21.1587 14.2094ZM20.1219 16.9409L14.7135 20.853C14.0061 21.3645 13.0114 21.1954 12.4957 20.4761L4.28795 9.02942C4.01737 8.65212 3.92056 8.17818 4.022 7.72907L5.00582 3.37446C5.17995 2.59792 5.9056 2.073 6.69466 2.15357L11.1177 2.59659C11.2069 2.60556 11.2943 2.62196 11.3797 2.64545C11.7311 2.74215 12.0435 2.95839 12.2612 3.26192L20.4687 14.7085C20.9844 15.4278 20.8288 16.4294 20.1219 16.9409Z" fill="#FF416C" stroke="#FF416C" stroke-width="0.5"/>
<path d="M8.66639 3.93689C8.15668 3.22589 7.17284 3.05946 6.47342 3.56574C5.77379 4.07196 5.6191 5.06194 6.12886 5.77273C6.34999 6.0812 6.66048 6.2872 6.99837 6.38018C7.4389 6.5014 7.92583 6.43051 8.32177 6.14409C8.66074 5.89892 8.88339 5.53439 8.94847 5.11744C9.01354 4.70049 8.91334 4.28104 8.66639 3.93689ZM7.81926 5.44274C7.66464 5.55443 7.47541 5.59853 7.28641 5.5665C7.09755 5.53567 6.93133 5.43046 6.81885 5.27338C6.70637 5.11629 6.66057 4.92505 6.69031 4.73486C6.72004 4.54466 6.82164 4.37842 6.97605 4.26667C7.13067 4.15497 7.31989 4.11087 7.5089 4.1429C7.53324 4.14705 7.55703 4.15243 7.58053 4.1589C7.73966 4.20269 7.8783 4.29937 7.97646 4.43603C8.08916 4.59317 8.13474 4.78435 8.105 4.97455C8.07532 5.16452 7.97388 5.33104 7.81926 5.44274Z" fill="#FF416C" stroke="#FF416C" stroke-width="0.5"/>
</svg>
