<svg width="13" height="15" viewBox="0 0 13 15" fill="none" xmlns="http://www.w3.org/2000/svg">
<path d="M2.95182 8.36212L0.584497 8.36476C0.351332 8.36476 0.134625 8.50167 0.0441015 8.70968C-0.0464216 8.91769 0.00569775 9.1415 0.170285 9.31528M2.95182 8.36212L0.170285 9.31528M2.95182 8.36212L2.95182 0.552937C2.95182 0.242239 3.20418 0 3.52787 0L9.26924 0C9.59292 0 9.84529 0.242239 9.84529 0.552937L9.84529 7.86212L2.95182 8.36212ZM0.170285 9.31528L0.53331 8.97146C0.531246 8.96928 0.52931 8.96716 0.527493 8.96509L0.516526 8.95456L0.170285 9.31528ZM6.2607 14.4682C6.25739 14.4657 6.25402 14.4631 6.25061 14.4603L5.93085 14.8447L6.27709 14.4839L6.2607 14.4682ZM6.44093 14.4568C6.4367 14.4603 6.43258 14.4635 6.42857 14.4664L6.4102 14.484L6.75653 14.8447L6.44093 14.4568ZM12.1253 8.99761L12.4979 9.33108L12.1516 8.97044L12.1341 8.98726C12.1314 8.99068 12.1284 8.99414 12.1253 8.99761ZM12.1647 8.87115C12.1645 8.87095 12.1647 8.87115 12.1651 8.87188L12.1657 8.87224C12.1658 8.8723 12.1656 8.87217 12.1653 8.87186L12.1647 8.87115Z" stroke="#FF416C"/>
</svg>
