<svg width="15" height="15" viewBox="0 0 15 15" fill="none" xmlns="http://www.w3.org/2000/svg">
<path d="M0.00589362 3.04195C0.0825107 2.80552 0.12966 2.55043 0.241638 2.3389C0.583468 1.69806 1.11979 1.37454 1.80934 1.36831C2.84662 1.36209 3.88979 1.36209 4.92707 1.36831C5.16871 1.36831 5.33373 1.52386 5.33373 1.74161C5.33373 1.96559 5.16281 2.12114 4.92117 2.12114C3.90158 2.12114 2.88198 2.12114 1.85649 2.12114C1.30249 2.12114 0.89583 2.43844 0.754383 2.98595C0.730809 3.10416 0.724915 3.22237 0.724915 3.34059C0.724915 6.56964 0.724915 9.79869 0.724915 13.0277C0.724915 13.6312 1.0137 14.0543 1.52055 14.2036C1.63843 14.2347 1.76219 14.2534 1.88006 14.2534C5.1746 14.2534 8.47503 14.2534 11.7696 14.2534C12.4709 14.2534 12.9247 13.7681 12.9247 13.0215C12.9247 11.9514 12.9247 10.875 12.9247 9.80491C12.9247 9.58715 13.0308 9.43161 13.1958 9.39428C13.4139 9.34451 13.6261 9.50627 13.6319 9.74891C13.6378 10.0476 13.6378 10.3524 13.6319 10.6511C13.6319 11.5034 13.6437 12.362 13.6261 13.2144C13.6084 14.1601 12.8481 14.9565 11.9464 14.9938C11.8815 14.9938 11.8167 15 11.7519 15C8.45735 15 5.1687 15 1.87417 15C1.15515 15 0.595256 14.6951 0.235745 14.0357C0.117872 13.8241 0.0766171 13.569 0 13.3326C0.00589362 9.90446 0.00589362 6.47009 0.00589362 3.04195Z" fill="#FF416C"/>
<path d="M12.9029 0C13.319 0.00611918 13.6922 0.140741 14.0103 0.428342C14.1817 0.587441 14.3469 0.752659 14.5059 0.917877C15.1545 1.59099 15.1667 2.56394 14.5365 3.26152C14.4998 3.30436 14.457 3.34719 14.4142 3.39002C12.2666 5.53786 10.1252 7.67957 7.98375 9.8274C7.86138 9.94978 7.72678 10.0232 7.56158 10.0722C6.59488 10.3353 5.62206 10.6045 4.65536 10.8738C4.52687 10.9105 4.39839 10.935 4.27602 10.8615C4.12306 10.7698 4.05576 10.6107 4.11082 10.4087C4.3372 9.57651 4.59417 8.75043 4.78996 7.90598C4.91233 7.40421 5.15706 7.0187 5.51805 6.65767C7.5677 4.63834 9.59288 2.59453 11.6303 0.556845C11.9852 0.208052 12.3951 0.00611918 12.9029 0ZM11.3244 1.98873C9.52558 3.78777 7.72066 5.59293 5.9341 7.37973C6.49699 7.94269 7.07211 8.5179 7.62277 9.07474C9.42157 7.2757 11.2265 5.47055 13.0192 3.67763C12.4563 3.11466 11.8812 2.53946 11.3244 1.98873ZM11.8444 1.37682C12.4502 1.98261 13.0253 2.55782 13.6188 3.1575C13.7228 3.04735 13.839 2.92497 13.9492 2.8087C13.9981 2.75975 14.0409 2.7108 14.0838 2.65572C14.3163 2.34365 14.3224 1.86635 14.0715 1.57263C13.8819 1.34622 13.6738 1.13205 13.4475 0.948473C13.1599 0.715944 12.8111 0.67311 12.493 0.856685C12.2544 0.991307 12.0525 1.20548 11.8444 1.37682ZM5.53028 8.09567C5.35285 8.72595 5.18154 9.35622 4.99799 10.011C5.65265 9.8274 6.28284 9.65606 6.91303 9.47861C6.44804 9.01355 5.99528 8.56073 5.53028 8.09567Z" fill="#FF416C"/>
</svg>
