<svg width="25" height="25" viewBox="0 0 25 25" fill="none" xmlns="http://www.w3.org/2000/svg">
<circle cx="12.5" cy="12.5" r="11.75" fill="white" stroke="#FF416C" stroke-width="1.5"/>
<path d="M12.5885 17.1001C10.9512 17.1001 9.31389 17.1027 7.67658 17.1001C6.91777 17.0975 6.58419 16.7684 6.58165 16.0072C6.5791 14.3177 6.57656 12.6308 6.58419 10.9439C6.58674 10.1467 6.90758 9.83042 7.70714 9.8227C8.51688 9.81499 9.32917 9.79956 10.1389 9.83042C10.4903 9.84327 10.7144 9.74556 10.8188 9.41383C11.0327 8.74009 11.4681 8.50608 12.1734 8.56009C13.0621 8.62695 13.9584 8.59352 14.8522 8.57037C15.2749 8.55751 15.5677 8.69895 15.6951 9.10525C15.8784 9.68127 16.2247 9.86385 16.8384 9.84327C18.4477 9.7867 18.5495 9.92299 18.5495 11.5559C18.5495 13.0268 18.5546 14.4952 18.547 15.9661C18.5444 16.8044 18.2363 17.1027 17.4037 17.1052C15.7995 17.1001 14.1953 17.1001 12.5885 17.1001ZM12.5376 16.5807C14.1418 16.5807 15.746 16.5832 17.3502 16.5807C17.946 16.5807 18.0148 16.5138 18.0173 15.9249C18.0224 14.5054 18.0224 13.086 18.0173 11.6665C18.0122 10.2367 18.1778 10.3113 16.7136 10.3627C16.0083 10.3884 15.5295 10.211 15.3131 9.50126C15.2087 9.16182 14.9795 9.06925 14.6332 9.08468C13.8566 9.11811 13.0774 9.14382 12.3033 9.10268C11.7558 9.07439 11.3892 9.19782 11.2186 9.76613C11.0785 10.2367 10.7348 10.3756 10.256 10.355C9.43102 10.3241 8.60346 10.3421 7.77589 10.3473C7.20805 10.3499 7.09856 10.4502 7.09601 11.0056C7.09092 12.6437 7.09092 14.2791 7.09601 15.9172C7.09856 16.4701 7.21569 16.5781 7.77334 16.5807C9.36227 16.5807 10.9486 16.5781 12.5376 16.5807Z" fill="#FF416C" stroke="#FF416C" stroke-width="0.5"/>
<path d="M12.9339 12.9363C13.8226 12.9363 14.5865 12.9363 15.3529 12.9363C15.3529 13.0083 15.3529 13.0829 15.3529 13.1549C14.589 13.1549 13.8276 13.1549 12.9874 13.1549C12.9874 14.0189 12.9874 14.7775 12.9874 15.5361C12.9135 15.5387 12.8422 15.5439 12.7684 15.5464C12.7684 14.7981 12.7684 14.0498 12.7684 13.2063C11.8873 13.2063 11.1412 13.2063 10.3926 13.2063C10.3875 13.1292 10.3824 13.0495 10.3799 12.9723C11.126 12.9723 11.8695 12.9723 12.7073 12.9723C12.7073 12.0877 12.7073 11.3368 12.7073 10.586C12.7836 10.5834 12.8575 10.5808 12.9339 10.5782C12.9339 11.3291 12.9339 12.0826 12.9339 12.9363Z" fill="#FF416C" stroke="#FF416C" stroke-width="0.5"/>
</svg>
