<svg width="24" height="24" viewBox="0 0 24 24" fill="none" xmlns="http://www.w3.org/2000/svg">
<path d="M6.47452 13.5608C4.82523 13.5608 3.17024 13.5608 1.52095 13.5608C1.09865 13.5551 0.984508 13.4524 1.00163 13.0243C1.09294 11.1468 2.01745 9.76572 3.61538 8.8355C6.11499 7.37454 9.43639 8.06508 11.0743 10.3535C11.6507 11.1639 11.9645 12.0656 11.9931 13.0586C11.9988 13.4295 11.8732 13.5551 11.5023 13.5551C9.83016 13.5608 8.15234 13.5608 6.47452 13.5608ZM11.1884 12.7847C11.0514 10.7987 9.08256 8.68713 6.21201 8.85263C3.85507 8.98959 1.61226 11.0212 1.81771 12.7847C4.93937 12.7847 8.05533 12.7847 11.1884 12.7847Z" fill="#FF416C" stroke="#FF416C" stroke-width="0.5"/>
<path d="M17.5114 22.9999C15.8507 22.9999 14.19 22.9999 12.535 22.9999C12.1241 22.9999 11.9928 22.8801 12.0157 22.4635C12.1298 20.5517 13.0714 19.1535 14.7207 18.229C17.2146 16.8365 20.4504 17.527 22.0826 19.7813C22.6761 20.5973 22.99 21.5162 23.0071 22.532C23.0128 22.8801 22.8873 22.9999 22.5391 22.9999C20.8613 22.9999 19.1835 22.9999 17.5114 22.9999ZM12.8203 22.2238C15.9534 22.2238 19.0751 22.2238 22.191 22.2238C22.3508 20.3862 20.0395 18.3488 17.694 18.2861C14.6979 18.2062 12.9117 20.4261 12.8203 22.2238Z" fill="#FF416C" stroke="#FF416C" stroke-width="0.5"/>
<path d="M3.36428 4.13878C3.35857 2.39248 4.74534 1 6.49164 1C8.23224 1 9.63613 2.39248 9.63613 4.12737C9.63613 5.86226 8.23795 7.26615 6.50306 7.27185C4.76246 7.27185 3.36428 5.87938 3.36428 4.13878ZM8.86 4.13307C8.85429 2.82049 7.79852 1.75901 6.49735 1.75901C5.19618 1.75901 4.12329 2.8262 4.12329 4.12737C4.12329 5.43424 5.18477 6.49572 6.49164 6.49572C7.80422 6.50143 8.8657 5.43995 8.86 4.13307Z" fill="#FF416C" stroke="#FF416C" stroke-width="0.5"/>
<path d="M20.6387 13.595C20.633 15.3299 19.2291 16.7224 17.4885 16.711C15.7479 16.7053 14.3669 15.29 14.3726 13.5323C14.3783 11.8031 15.7879 10.4391 17.5741 10.4448C19.2634 10.4391 20.6444 11.8601 20.6387 13.595ZM17.4714 15.9406C18.7783 15.9577 19.8626 14.9076 19.8797 13.6065C19.8968 12.2996 18.8468 11.221 17.5456 11.1982C16.2387 11.181 15.1658 12.2254 15.143 13.5323C15.1259 14.8505 16.1645 15.9234 17.4714 15.9406Z" fill="#FF416C" stroke="#FF416C" stroke-width="0.5"/>
<path d="M17.5231 6.66121C17.5231 6.09623 17.5231 5.53125 17.5231 4.96627C17.5231 4.57249 17.5231 4.17872 17.5231 3.78495C17.5174 3.06017 17.0152 2.55226 16.2904 2.55226C14.6525 2.54655 13.0204 2.55226 11.3825 2.55226C11.3026 2.55226 11.2227 2.55797 11.1485 2.54085C10.9602 2.49519 10.846 2.36964 10.8403 2.17561C10.8403 1.98157 10.9373 1.84461 11.1314 1.79895C11.2056 1.78183 11.2855 1.78183 11.3654 1.78183C12.9918 1.78183 14.624 1.77613 16.2504 1.78183C17.2777 1.78183 18.0652 2.40959 18.2536 3.36834C18.2821 3.50531 18.2821 3.64798 18.2821 3.79065C18.2821 4.6638 18.2821 5.53696 18.2821 6.41011C18.2821 6.49571 18.2821 6.58131 18.2821 6.70687C18.362 6.6498 18.4076 6.61556 18.4476 6.57561C18.693 6.33021 18.9327 6.08482 19.1838 5.84513C19.3607 5.67392 19.6004 5.67392 19.7545 5.83371C19.9028 5.9878 19.9028 6.21607 19.7316 6.38157C19.2237 6.89519 18.7101 7.40881 18.1965 7.91672C18.0082 8.09934 17.797 8.10505 17.6144 7.92243C17.1008 7.41452 16.5872 6.9009 16.0792 6.38728C15.908 6.21607 15.9023 5.99351 16.0507 5.83942C16.1991 5.67963 16.4445 5.67392 16.6214 5.84513C16.9067 6.12476 17.1864 6.41011 17.466 6.69545C17.4831 6.67833 17.5003 6.67262 17.5231 6.66121Z" fill="#FF416C" stroke="#FF416C" stroke-width="0.5"/>
<path d="M4.92814 17.2532C4.92244 17.4016 4.91102 17.4644 4.91102 17.5329C4.91102 18.4117 4.91102 19.2963 4.91102 20.1751C4.91102 20.9456 5.40181 21.4478 6.17795 21.4478C7.67885 21.4535 9.18547 21.4478 10.6864 21.4478C10.772 21.4478 10.8633 21.4478 10.9432 21.4706C11.1201 21.5277 11.2057 21.6589 11.2 21.8473C11.1943 22.0242 11.0973 22.144 10.9318 22.1897C10.8576 22.2125 10.7777 22.2125 10.6978 22.2125C9.19688 22.2125 7.69027 22.2125 6.18936 22.2068C4.95668 22.2011 4.1463 21.3736 4.14059 20.1352C4.14059 19.2849 4.14059 18.4345 4.14059 17.5842C4.14059 17.4986 4.14059 17.413 4.14059 17.2532C3.92373 17.4701 3.75823 17.6356 3.58703 17.8011C3.47289 17.9095 3.36446 18.0237 3.25032 18.1321C3.0677 18.3033 2.83943 18.3147 2.67963 18.1606C2.51984 18.0065 2.51984 17.7783 2.70246 17.5956C3.10765 17.179 3.52425 16.7681 3.93515 16.3572C4.03787 16.2545 4.12918 16.1518 4.23761 16.0605C4.42023 15.895 4.63709 15.8893 4.8083 16.0548C5.32762 16.5684 5.84695 17.0877 6.36057 17.6071C6.52607 17.7725 6.52036 18.0122 6.37198 18.1606C6.2236 18.309 5.98962 18.309 5.81841 18.1549C5.67004 18.0179 5.52736 17.8696 5.38469 17.7212C5.24773 17.5899 5.11647 17.4473 4.92814 17.2532Z" fill="#FF416C" stroke="#FF416C" stroke-width="0.5"/>
</svg>
