<svg width="24" height="24" viewBox="0 0 24 24" fill="none" xmlns="http://www.w3.org/2000/svg">
<path d="M21.0789 5.64931C20.7716 6.06374 20.4893 6.46989 20.1986 6.85946C19.4263 7.89554 20.1156 9.64446 21.3695 9.84339C23.0138 10.1169 23.0138 10.1169 23.0138 11.7664C23.0138 11.899 23.0138 12.0316 23.0138 12.1642C23.0138 13.8634 23.0138 13.8634 21.3363 14.1535C20.1156 14.369 19.4346 16.0848 20.1571 17.0794C21.2616 18.6045 21.3778 18.1404 19.9744 19.5909C19.908 19.6655 19.8332 19.7318 19.7668 19.7981C18.463 21.0994 18.463 21.0994 16.9516 20.0302C16.1959 19.4914 14.4022 20.1877 14.2112 21.0994C13.8043 22.9893 13.8043 22.9893 11.7946 22.9893C11.4957 22.9893 11.1967 22.9644 10.8978 22.9976C10.2583 23.0639 9.95937 22.7738 9.95937 22.1604C9.96767 21.0248 9.55246 20.3535 8.36494 19.9307C7.5262 19.6323 7.10268 19.9142 6.64594 20.3617C5.88194 21.0994 5.25081 21.0912 4.63629 20.2126C4.56155 20.1048 4.45359 20.0219 4.36224 19.9307C2.9339 18.5051 2.9339 18.5051 4.04668 16.8225C4.40377 16.292 3.73111 14.4353 3.11659 14.2447C3.05016 14.2281 2.98372 14.2281 2.91729 14.2115C2.29446 14.0458 1.18999 13.9794 1.14016 13.6976C0.924246 12.6201 1.00729 11.468 1.06542 10.3573C1.07372 10.2164 1.58029 10.0257 1.87925 9.97601C3.49029 9.71906 3.93872 9.3958 4.19616 7.86239C4.26259 7.4894 3.8972 6.95063 3.58994 6.62737C2.89238 5.88139 2.91729 5.27631 3.74772 4.69611C3.83077 4.63808 3.8889 4.5552 3.96364 4.48889C5.45842 2.99692 5.45842 2.99692 7.21894 4.10761C7.82515 4.48889 9.61889 3.70975 9.78498 2.99692C10.2251 1.02421 10.2251 1.02421 12.2265 1.02421C12.5254 1.02421 12.8244 1.04908 13.1233 1.01592C13.7628 0.949613 14.1032 1.24801 14.0534 1.85308C13.9205 3.32018 14.8423 3.90868 16.0381 4.16563C16.3869 4.24023 16.8852 3.99157 17.2174 3.75948C18.5876 2.81457 18.2554 2.69853 19.5177 3.94183C19.9163 4.33969 20.3232 4.72926 20.7052 5.13541C20.8298 5.27631 20.9294 5.45038 21.0789 5.64931ZM18.3717 3.95012C18.2139 4.03301 18.0727 4.07445 17.9897 4.16563C17.0596 5.17685 16.1461 5.19343 14.8589 4.60493C13.8541 4.14076 13.414 3.66831 13.3641 2.64051C13.3475 2.35869 13.1565 1.86137 12.9988 1.8365C12.3178 1.75362 11.587 1.70388 10.9393 1.87795C10.7151 1.94426 10.5822 2.67366 10.5573 3.11296C10.5158 3.84237 10.1587 4.09103 9.51924 4.43087C8.05768 5.21829 6.82033 5.32605 5.56637 3.63515C5.2425 4.1159 5.05981 4.49718 4.76916 4.75413C4.45359 5.03594 4.03007 5.19343 3.65637 5.40064C4.2709 6.16321 4.56985 6.56106 4.8605 6.95892C4.98507 7.14956 5.21759 7.40651 5.16776 7.54742C4.8605 8.45089 4.56985 9.37093 4.0965 10.1915C3.93872 10.4733 3.27437 10.5645 2.84255 10.5645C1.72146 10.5645 1.77129 11.2525 1.72977 12.0648C1.67994 12.9765 1.93738 13.391 2.89238 13.4324C3.33251 13.449 4.02177 13.623 4.16294 13.9214C4.82729 15.3305 5.76568 16.8308 4.02177 18.1901C3.98855 18.215 4.01346 18.3144 4.02177 18.1818C4.64459 18.8532 5.17607 19.4251 5.73246 20.0302C6.09785 19.765 6.47155 19.5329 6.77881 19.2428C7.27707 18.7786 7.76702 18.646 8.35663 19.0853C8.56424 19.2428 8.82167 19.3837 9.0708 19.4168C10.167 19.5743 10.6652 20.2126 10.632 21.2818C10.5988 22.4919 11.4791 22.1687 12.1517 22.2184C12.8327 22.2599 13.3891 22.2516 13.414 21.2984C13.4306 20.7845 13.5801 19.9805 13.9205 19.823C15.3157 19.1599 16.8188 18.1984 18.189 19.9307C18.2222 19.9722 18.3135 19.9639 18.3384 19.9722C18.9198 19.4168 19.4844 18.8698 20.0907 18.2896C19.8332 17.9415 19.6339 17.5933 19.3599 17.3115C18.7869 16.7313 18.6789 16.1511 19.2021 15.488C19.3184 15.3388 19.4263 15.1399 19.4429 14.9492C19.5675 13.6976 20.3896 13.3578 21.4858 13.3246C21.7349 13.3164 22.1751 13.1091 22.1834 12.9682C22.2415 12.2886 22.2996 11.5591 22.1169 10.9209C22.0505 10.6888 21.3197 10.5645 20.8796 10.5479C20.1322 10.5065 19.9163 10.0838 19.5758 9.47869C18.7371 8.02816 18.7204 6.80143 20.1488 5.74048C19.4928 5.07738 18.9364 4.52204 18.3717 3.95012Z" fill="#FF416C" stroke="#FF416C" stroke-width="0.5"/>
<path d="M11.9854 17.6597C8.80479 17.6514 6.32179 15.1565 6.3301 11.9736C6.3301 8.79903 8.83801 6.32071 12.0186 6.329C15.1991 6.33729 17.6821 8.8239 17.6821 12.0068C17.6738 15.1813 15.1659 17.6679 11.9854 17.6597ZM11.9937 7.09156C9.26983 7.09985 7.07749 9.30464 7.08579 12.0316C7.1024 14.7006 9.29475 16.8888 11.9604 16.9054C14.676 16.922 16.9181 14.7089 16.9181 12.0068C16.9347 9.29636 14.7175 7.08327 11.9937 7.09156Z" fill="#FF416C" stroke="#FF416C" stroke-width="0.5"/>
</svg>
