<svg width="24" height="24" viewBox="0 0 24 24" fill="none" xmlns="http://www.w3.org/2000/svg">
<path d="M23.0185 12.1216C22.9487 18.275 18.0465 23.0687 11.9057 22.999C5.83462 22.9293 0.880091 17.8915 1.00221 11.8601C1.12433 5.72418 6.04397 0.947886 12.1848 1.00018C18.3256 1.05248 23.0882 5.95079 23.0185 12.1216ZM21.8671 12.0519C21.9019 6.63063 17.558 2.18554 12.1499 2.13324C6.7069 2.09838 2.11872 6.63063 2.17106 12.0345C2.2234 17.4209 6.68945 21.8485 12.0452 21.8485C17.4359 21.8485 21.8496 17.4557 21.8671 12.0519Z" fill="#FF416C" stroke="#FF416C" stroke-width="0.5"/>
<path d="M10.9731 13.7C10.9816 13.1964 11.0387 12.7986 11.1445 12.5066C11.2503 12.2146 11.4661 11.8909 11.792 11.5354L12.6235 10.6785C12.979 10.2764 13.1567 9.84481 13.1567 9.38354C13.1567 8.93921 13.0404 8.5922 12.8076 8.34253C12.5749 8.08862 12.2363 7.96167 11.792 7.96167C11.3604 7.96167 11.0133 8.07593 10.751 8.30444C10.4886 8.53296 10.3574 8.83976 10.3574 9.22485H9.18311C9.19157 8.53931 9.4349 7.98706 9.91309 7.56812C10.3955 7.14494 11.0218 6.93335 11.792 6.93335C12.5918 6.93335 13.2139 7.14917 13.6582 7.58081C14.1068 8.00822 14.3311 8.59644 14.3311 9.34546C14.3311 10.086 13.9883 10.816 13.3027 11.5354L12.6108 12.2209C12.3019 12.5637 12.1475 13.0567 12.1475 13.7H10.9731ZM10.9224 15.7122C10.9224 15.5217 10.9795 15.363 11.0938 15.2361C11.2122 15.1049 11.3857 15.0393 11.6143 15.0393C11.8428 15.0393 12.0163 15.1049 12.1348 15.2361C12.2533 15.363 12.3125 15.5217 12.3125 15.7122C12.3125 15.9026 12.2533 16.0613 12.1348 16.1882C12.0163 16.311 11.8428 16.3723 11.6143 16.3723C11.3857 16.3723 11.2122 16.311 11.0938 16.1882C10.9795 16.0613 10.9224 15.9026 10.9224 15.7122Z" fill="#FF416C"/>
<path d="M10.9731 13.7L10.7232 13.6958L10.7189 13.95H10.9731V13.7ZM11.792 11.5354L11.6125 11.3612L11.6077 11.3665L11.792 11.5354ZM12.6235 10.6785L12.8031 10.8528L12.8108 10.8441L12.6235 10.6785ZM12.8076 8.34253L12.6233 8.51147L12.6248 8.513L12.8076 8.34253ZM10.3574 9.22485V9.47485H10.6074V9.22485H10.3574ZM9.18311 9.22485L8.93312 9.22177L8.93 9.47485H9.18311V9.22485ZM9.91309 7.56812L10.0778 7.75616L10.0779 7.75606L9.91309 7.56812ZM13.6582 7.58081L13.484 7.76014L13.4857 7.7618L13.6582 7.58081ZM13.3027 11.5354L13.4788 11.7131L13.4837 11.7079L13.3027 11.5354ZM12.6108 12.2209L12.4346 12.0431L12.4251 12.0536L12.6108 12.2209ZM12.1475 13.7V13.95H12.3975V13.7H12.1475ZM11.0938 15.2361L10.9082 15.0685L10.9079 15.0688L11.0938 15.2361ZM12.1348 15.2361L11.9492 15.4037L11.952 15.4067L12.1348 15.2361ZM12.1348 16.1882L12.3146 16.3619L12.3175 16.3588L12.1348 16.1882ZM11.0938 16.1882L10.9078 16.3556L10.9139 16.3619L11.0938 16.1882ZM11.2231 13.7042C11.2314 13.2132 11.2872 12.8467 11.3796 12.5918L10.9095 12.4214C10.7903 12.7505 10.7319 13.1795 10.7232 13.6958L11.2231 13.7042ZM11.3796 12.5918C11.4697 12.3431 11.6617 12.0475 11.9763 11.7043L11.6077 11.3665C11.2706 11.7342 11.031 12.0861 10.9095 12.4214L11.3796 12.5918ZM11.9714 11.7095L12.8029 10.8526L12.4441 10.5044L11.6126 11.3613L11.9714 11.7095ZM12.8108 10.8441C13.1997 10.4043 13.4067 9.91562 13.4067 9.38354H12.9067C12.9067 9.774 12.7583 10.1486 12.4362 10.5129L12.8108 10.8441ZM13.4067 9.38354C13.4067 8.89562 13.2781 8.48064 12.9905 8.17206L12.6248 8.513C12.8026 8.70377 12.9067 8.9828 12.9067 9.38354H13.4067ZM12.9919 8.1736C12.699 7.85405 12.2849 7.71167 11.792 7.71167V8.21167C12.1878 8.21167 12.4508 8.3232 12.6233 8.51146L12.9919 8.1736ZM11.792 7.71167C11.3151 7.71167 10.9049 7.83888 10.5868 8.11592L10.9152 8.49296C11.1218 8.31298 11.4056 8.21167 11.792 8.21167V7.71167ZM10.5868 8.11592C10.2637 8.39733 10.1074 8.77613 10.1074 9.22485H10.6074C10.6074 8.90339 10.7135 8.66859 10.9152 8.49296L10.5868 8.11592ZM10.3574 8.97485H9.18311V9.47485H10.3574V8.97485ZM9.43309 9.22794C9.44075 8.60709 9.65754 8.12437 10.0778 7.75616L9.74834 7.38007C9.21225 7.84975 8.94239 8.47152 8.93312 9.22177L9.43309 9.22794ZM10.0779 7.75606C10.506 7.38056 11.0697 7.18335 11.792 7.18335V6.68335C10.9739 6.68335 10.285 6.90932 9.74823 7.38018L10.0779 7.75606ZM11.792 7.18335C12.5464 7.18335 13.0988 7.3859 13.484 7.76013L13.8324 7.40149C13.329 6.91244 12.6372 6.68335 11.792 6.68335V7.18335ZM13.4857 7.7618C13.8747 8.13238 14.0811 8.64946 14.0811 9.34546H14.5811C14.5811 8.54341 14.3389 7.88406 13.8307 7.39982L13.4857 7.7618ZM14.0811 9.34546C14.0811 10.0024 13.7785 10.6738 13.1218 11.3629L13.4837 11.7079C14.1981 10.9582 14.5811 10.1696 14.5811 9.34546H14.0811ZM13.1268 11.3578L12.4349 12.0434L12.7868 12.3985L13.4787 11.713L13.1268 11.3578ZM12.4251 12.0536C12.061 12.4576 11.8975 13.0193 11.8975 13.7H12.3975C12.3975 13.0942 12.5429 12.6698 12.7965 12.3883L12.4251 12.0536ZM12.1475 13.45H10.9731V13.95H12.1475V13.45ZM11.1724 15.7122C11.1724 15.5758 11.2115 15.479 11.2796 15.4033L10.9079 15.0688C10.7475 15.2471 10.6724 15.4676 10.6724 15.7122H11.1724ZM11.2793 15.4037C11.3374 15.3393 11.4345 15.2893 11.6143 15.2893V14.7893C11.337 14.7893 11.0871 14.8705 10.9082 15.0685L11.2793 15.4037ZM11.6143 15.2893C11.794 15.2893 11.8911 15.3393 11.9492 15.4037L12.3203 15.0685C12.1414 14.8705 11.8915 14.7893 11.6143 14.7893V15.2893ZM11.952 15.4067C12.0229 15.4827 12.0625 15.5784 12.0625 15.7122H12.5625C12.5625 15.4651 12.4836 15.2434 12.3175 15.0655L11.952 15.4067ZM12.0625 15.7122C12.0625 15.8459 12.0229 15.9416 11.952 16.0177L12.3175 16.3588C12.4836 16.1809 12.5625 15.9593 12.5625 15.7122H12.0625ZM11.9549 16.0146C11.8979 16.0737 11.7988 16.1223 11.6143 16.1223V16.6223C11.8867 16.6223 12.1347 16.5483 12.3146 16.3619L11.9549 16.0146ZM11.6143 16.1223C11.4297 16.1223 11.3306 16.0737 11.2736 16.0146L10.9139 16.3619C11.0938 16.5483 11.3418 16.6223 11.6143 16.6223V16.1223ZM11.2796 16.021C11.2115 15.9453 11.1724 15.8485 11.1724 15.7122H10.6724C10.6724 15.9567 10.7475 16.1772 10.9079 16.3555L11.2796 16.021Z" fill="#FF416C"/>
</svg>
