<svg width="22" height="24" viewBox="0 0 22 24" fill="none" xmlns="http://www.w3.org/2000/svg">
<path d="M1 11.5913C1.08075 6.99425 3.79946 2.86241 7.94482 1.13853C8.16016 1.05644 8.40242 0.946984 8.59085 1.02907C9.07537 1.16589 9.02153 1.54897 8.88695 1.93206C8.18708 3.73803 7.94482 5.62609 8.16016 7.54151C8.86003 13.5067 13.8668 17.9669 19.7887 17.9122C19.9233 17.9122 20.0848 17.8574 20.2194 17.9122C20.4886 17.9942 20.8923 18.0216 20.9731 18.2132C21.0538 18.4047 20.9192 18.7878 20.7308 18.9793C17.6891 22.4271 13.9206 23.7405 9.50606 22.6186C5.09152 21.4694 2.37281 18.4868 1.32301 13.9992C1.13459 13.2057 1.10767 12.4122 1 11.5913ZM19.1965 19.034C15.105 18.7604 11.821 17.0639 9.45222 13.7256C7.02961 10.3873 6.49125 6.63853 7.4603 2.6435C5.01077 3.82012 2.0498 7.13106 2.13055 11.8649C2.21131 15.9694 4.82234 19.7729 8.64468 21.2231C12.7631 22.8102 16.9085 21.3873 19.1965 19.034Z" fill="#FF416C" stroke="#FF416C" stroke-width="0.5"/>
</svg>
