<svg width="24" height="24" viewBox="0 0 24 24" fill="none" xmlns="http://www.w3.org/2000/svg">
<path d="M16.125 10.0793C15.841 10.0793 15.5961 10.0793 15.312 10.0793C15.312 9.96831 15.312 9.86743 15.312 9.76655C15.312 7.34541 15.312 4.92427 15.312 2.50313C15.312 1.99872 15.1454 1.83731 14.6654 1.83731C11.276 1.83731 7.88659 1.83731 4.49718 1.83731C4.46779 1.83731 4.4482 1.83731 4.34044 1.8474C4.45799 1.89784 4.50697 1.9281 4.55595 1.94828C6.61311 2.65445 8.67027 3.35053 10.7372 4.05669C11.5503 4.32907 11.9519 4.91418 11.9519 5.80193C11.9519 10.3214 11.9519 14.8308 11.9519 19.3502C11.9519 19.4612 11.9519 19.5823 11.9519 19.7235C12.0597 19.7336 12.1479 19.7336 12.2458 19.7336C13.0491 19.7336 13.8622 19.7336 14.6654 19.7336C15.1552 19.7336 15.312 19.5722 15.312 19.0678C15.312 16.9493 15.312 14.8207 15.312 12.7022C15.312 12.6215 15.312 12.5408 15.312 12.45C15.5765 12.45 15.8312 12.45 16.125 12.45C16.125 12.5408 16.125 12.6417 16.125 12.7325C16.125 14.8409 16.125 16.9594 16.125 19.0678C16.125 20.0261 15.6058 20.5608 14.6752 20.5608C13.8034 20.5608 12.9217 20.5608 12.0499 20.5608C12.0303 20.5608 12.0205 20.5709 11.9519 20.5911C11.9519 20.7121 11.9519 20.8534 11.9519 20.9845C11.9519 21.3073 11.9617 21.6201 11.9519 21.9429C11.9323 22.7903 11.3348 23.2039 10.5707 22.9012C7.79843 21.8218 5.01636 20.7525 2.24409 19.6731C1.35266 19.32 1 18.8257 1 17.8471C1 12.6517 1 7.45638 1 2.26101C1 1.55485 1.33306 1.16141 2.02858 1.03026C2.17552 1.01009 2.32246 1 2.4694 1C6.53475 1 10.6099 1 14.6752 1C15.6058 1 16.125 1.54476 16.125 2.50313C16.125 4.91418 16.125 7.32523 16.125 9.74638C16.125 9.84726 16.125 9.94814 16.125 10.0793ZM11.1389 13.8018C11.1389 12.228 11.1389 10.6543 11.1389 9.08056C11.1389 7.97087 11.1389 6.85109 11.1389 5.7414C11.1389 5.30762 10.9527 4.99488 10.6197 4.88392C7.79843 3.92555 4.96738 2.96718 2.14613 1.99872C1.93062 1.9281 1.86205 2.02899 1.81307 2.20048C1.80327 2.2711 1.81307 2.36189 1.81307 2.4426C1.81307 7.12347 1.81307 11.8144 1.81307 16.4953C1.81307 16.9997 1.80327 17.5041 1.81307 18.0085C1.82286 18.3616 1.95021 18.6743 2.30287 18.8055C5.15351 19.9152 8.01394 21.0249 10.8646 22.1346C11.0703 22.2153 11.1291 22.1346 11.1389 21.9429C11.1389 21.8622 11.1389 21.7815 11.1389 21.7008C11.1389 19.0678 11.1389 16.4348 11.1389 13.8018Z" fill="#FF416C" stroke="#FF416C" stroke-width="0.5"/>
<path d="M17.418 11.6733C16.6931 11.6733 16.0171 11.6733 15.3314 11.6733C14.5379 11.6733 13.7543 11.6632 12.9608 11.6833C12.7061 11.6833 12.6277 11.5925 12.6375 11.3403C12.6473 10.846 12.6375 10.846 13.1077 10.846C14.4008 10.846 15.6939 10.846 16.9967 10.846C17.1241 10.846 17.2514 10.846 17.4278 10.846C17.4278 10.6947 17.4278 10.5736 17.4278 10.4425C17.4278 9.67581 17.4278 8.90911 17.4278 8.14242C17.4278 7.85995 17.4963 7.63802 17.7412 7.49678C18.0057 7.35555 18.231 7.43625 18.4563 7.59766C19.8572 8.63674 21.258 9.66572 22.6588 10.7048C23.1095 11.0377 23.1094 11.4816 22.649 11.8246C21.258 12.8536 19.867 13.8825 18.4759 14.9216C18.2506 15.0931 18.0253 15.1738 17.7608 15.0326C17.4963 14.8914 17.4278 14.6593 17.4278 14.3668C17.4278 13.479 17.418 12.6014 17.418 11.6733ZM18.2506 8.46524C18.2506 10.3416 18.2506 12.1676 18.2506 14.044C19.5241 13.1058 20.7682 12.1877 22.0221 11.2496C20.7584 10.3214 19.5241 9.40343 18.2506 8.46524Z" fill="#FF416C" stroke="#FF416C" stroke-width="0.5"/>
</svg>
