<svg width="50" height="50" viewBox="0 0 50 50" fill="none" xmlns="http://www.w3.org/2000/svg">
<circle cx="25" cy="25" r="23.5" stroke="white" stroke-width="3"/>
<path d="M25.4335 14.6323H24C22.5555 14.6323 21.1251 14.9209 19.7905 15.4817C18.4559 16.0424 17.2433 16.8643 16.2218 17.9004C15.2004 18.9366 14.3901 20.1666 13.8373 21.5204C13.2845 22.8741 13 24.3251 13 25.7904C13 27.2557 13.2845 28.7066 13.8373 30.0604C14.3901 31.4142 15.2004 32.6442 16.2218 33.6803C17.2433 34.7165 18.4559 35.5384 19.7905 36.0991C21.1251 36.6599 22.5555 36.9485 24 36.9485H35.6488C35.718 36.9485 35.7866 36.9347 35.8506 36.9078C35.9145 36.8809 35.9727 36.8415 36.0216 36.7919C36.0706 36.7422 36.1094 36.6832 36.1359 36.6183C36.1624 36.5534 36.176 36.4839 36.176 36.4137V25.5295C36.1728 22.6405 35.0399 19.8707 33.026 17.8278C31.0121 15.7849 28.2816 14.6357 25.4335 14.6323ZM35.1215 35.8788H24C21.3623 35.8788 18.8326 34.8159 16.9675 32.924C15.1023 31.032 14.0545 28.466 14.0545 25.7904C14.0545 23.1148 15.1023 20.5487 16.9675 18.6568C18.8326 16.7648 21.3623 15.702 24 15.702H25.4335C28.002 15.705 30.4646 16.7413 32.2808 18.5837C34.097 20.4261 35.1187 22.924 35.1215 25.5295V35.8788Z" fill="white" stroke="white"/>
<path d="M29.4262 23.0813H20.6562C20.5163 23.0813 20.3822 23.1376 20.2833 23.2379C20.1845 23.3382 20.1289 23.4743 20.1289 23.6161C20.1289 23.758 20.1845 23.894 20.2833 23.9943C20.3822 24.0946 20.5163 24.1509 20.6562 24.1509H29.4262C29.5661 24.1509 29.7002 24.0946 29.7991 23.9943C29.8979 23.894 29.9535 23.758 29.9535 23.6161C29.9535 23.4743 29.8979 23.3382 29.7991 23.2379C29.7002 23.1376 29.5661 23.0813 29.4262 23.0813Z" fill="white" stroke="white"/>
<path d="M29.4261 27.3058H24.5878C24.448 27.3058 24.3138 27.3621 24.215 27.4624C24.1161 27.5627 24.0605 27.6988 24.0605 27.8406C24.0605 27.9824 24.1161 28.1185 24.215 28.2188C24.3138 28.3191 24.448 28.3754 24.5878 28.3754H29.4261C29.566 28.3754 29.7001 28.3191 29.7989 28.2188C29.8978 28.1185 29.9534 27.9824 29.9534 27.8406C29.9534 27.6988 29.8978 27.5627 29.7989 27.4624C29.7001 27.3621 29.566 27.3058 29.4261 27.3058Z" fill="white" stroke="white"/>
</svg>
