<svg width="25" height="25" viewBox="0 0 25 25" fill="none" xmlns="http://www.w3.org/2000/svg">
<circle cx="12.5" cy="12.5" r="11.75" fill="white" stroke="#FF416C" stroke-width="1.5"/>
<path d="M13.1086 12.7971C14.5381 12.7971 15.767 12.7971 17 12.7971C17 12.913 17 13.0331 17 13.1491C15.7711 13.1491 14.5463 13.1491 13.1946 13.1491C13.1946 14.5404 13.1946 15.7619 13.1946 16.9834C13.0758 16.9876 12.9611 16.9959 12.8423 17C12.8423 15.795 12.8423 14.5901 12.8423 13.2319C11.425 13.2319 10.2248 13.2319 9.02048 13.2319C9.01229 13.1077 9.0041 12.9793 9 12.8551C10.2002 12.8551 11.3963 12.8551 12.744 12.8551C12.744 11.4306 12.744 10.2215 12.744 9.01242C12.8669 9.00828 12.9857 9.00414 13.1086 9C13.1086 10.2091 13.1086 11.4224 13.1086 12.7971Z" fill="#FF416C" stroke="#FF416C" stroke-width="0.5"/>
</svg>
