<svg width="25" height="25" viewBox="0 0 25 25" fill="none" xmlns="http://www.w3.org/2000/svg">
<rect x="0.5" y="0.5" width="24" height="24" rx="7.5" stroke="#FF416C"/>
<path d="M12.3993 18.9984C12.0961 18.8941 11.9886 18.6792 11.9902 18.3649C11.9966 16.6343 11.9934 14.9053 11.9934 13.1747C11.9934 13.125 11.9934 13.0737 11.9934 13.0079C11.9372 13.0079 11.8875 13.0079 11.8394 13.0079C10.1052 13.0079 8.36944 13.0047 6.63527 13.0111C6.31924 13.0127 6.10427 12.9052 6 12.6005C6 12.5331 6 12.4658 6 12.3968C6.10427 12.0937 6.31924 11.9862 6.63367 11.9878C8.36463 11.9942 10.0956 11.991 11.8265 11.991C11.8763 11.991 11.926 11.991 11.9934 11.991C11.9934 11.9333 11.9934 11.8836 11.9934 11.8355C11.9934 10.084 11.9934 8.33258 11.9918 6.58114C11.9918 6.41273 12.0239 6.25876 12.1506 6.14328C12.303 6.00214 12.4843 5.96204 12.68 6.03742C12.8741 6.11281 12.9816 6.26197 13.0041 6.46887C13.0089 6.51859 13.0073 6.56991 13.0073 6.62124C13.0073 8.35664 13.0073 10.0904 13.0073 11.8258C13.0073 11.8756 13.0073 11.9269 13.0073 11.9926C13.0634 11.9926 13.1131 11.9926 13.1613 11.9926C14.9131 11.9926 16.6649 11.9926 18.4167 11.991C18.59 11.991 18.7456 12.0263 18.8643 12.1594C18.999 12.3118 19.0359 12.4898 18.9638 12.6791C18.8884 12.8732 18.7392 12.9806 18.5322 13.0047C18.4825 13.0111 18.4311 13.0079 18.3798 13.0079C16.644 13.0079 14.9099 13.0079 13.1741 13.0079C13.1244 13.0079 13.073 13.0079 13.0057 13.0079C13.0057 13.064 13.0057 13.1121 13.0057 13.1619C13.0057 14.8973 13.0024 16.6311 13.0089 18.3665C13.0105 18.6808 12.903 18.8974 12.5998 19C12.534 18.9984 12.4666 18.9984 12.3993 18.9984Z" fill="#FF416C"/>
</svg>
