<svg width="78" height="86" viewBox="0 0 78 86" fill="none" xmlns="http://www.w3.org/2000/svg">
<path d="M51.3335 24.865C51.3335 24.7311 51.3335 24.5971 51.3335 24.4646C51.3456 24.4526 51.3621 24.4436 51.3667 24.43C51.895 22.7788 52.4203 21.1275 52.9547 19.4793C53.0134 19.2987 53.0074 19.1557 52.914 18.9886C52.2141 17.7227 51.743 16.3755 51.5172 14.944C51.4479 14.509 51.3937 14.071 51.332 13.636C51.332 13.1182 51.332 12.6004 51.332 12.0825C51.3471 12.0103 51.3697 11.9396 51.3742 11.8658C51.5006 10.0761 51.9733 8.37816 52.8388 6.8097C54.8347 3.19261 57.8678 0.981415 61.9304 0.201702C62.4196 0.108377 62.9194 0.0662305 63.4146 0C63.9158 0 64.4171 0 64.9183 0C64.983 0.0135471 65.0463 0.037631 65.1125 0.0406414C66.2188 0.109882 67.2906 0.343194 68.3397 0.696925C73.9347 2.58449 77.5593 8.23666 76.9391 14.1191C76.7194 16.2054 76.0691 18.1487 74.886 19.8842C72.4099 23.5133 68.9599 25.4566 64.5691 25.6538C62.2435 25.7576 60.0489 25.2082 58.0063 24.0838C57.8482 23.9965 57.7127 23.9845 57.5396 24.0417C55.9471 24.561 54.3485 25.0682 52.7545 25.5845C52.3481 25.717 51.9703 25.6944 51.6617 25.3874C51.5202 25.2459 51.4404 25.0411 51.3335 24.865ZM53.8924 23.1084C54.9762 22.7607 56.0148 22.4702 57.0188 22.0894C57.7173 21.8245 58.2787 21.9193 58.926 22.2835C61.2546 23.5991 63.7608 23.9724 66.3799 23.426C69.1044 22.857 71.29 21.4195 72.9217 19.1737C74.7897 16.6028 75.3903 13.7293 74.7596 10.624C74.2101 7.91605 72.7742 5.74248 70.5509 4.11081C67.98 2.22474 65.0959 1.59254 61.9876 2.23979C58.5632 2.95177 56.0585 4.94471 54.4689 8.047C53.4213 10.0911 53.1248 12.2752 53.483 14.5466C53.7028 15.9405 54.1814 17.241 54.913 18.4437C55.1343 18.8064 55.1779 19.1662 55.0379 19.5651C54.8693 20.0453 54.7203 20.5315 54.5653 21.0161C54.3455 21.698 54.1273 22.3784 53.8924 23.1084Z" fill="#C4C4C4"/>
<path d="M60.408 12.8352C60.408 13.5231 59.8299 14.0936 59.1436 14.086C58.4647 14.0785 57.9047 13.511 57.9063 12.8337C57.9063 12.1458 58.4843 11.5753 59.1707 11.5828C59.848 11.5904 60.408 12.1563 60.408 12.8352Z" fill="#C4C4C4"/>
<path d="M64.1809 14.086C63.493 14.092 62.918 13.5216 62.918 12.8337C62.918 12.1563 63.4794 11.5903 64.1583 11.5828C64.8462 11.5768 65.4212 12.1473 65.4212 12.8352C65.4197 13.5125 64.8582 14.0785 64.1809 14.086Z" fill="#C4C4C4"/>
<path d="M69.1765 11.5829C69.8644 11.5799 70.4379 12.1534 70.4334 12.8413C70.4304 13.5186 69.8659 14.0831 69.1885 14.0861C68.5006 14.0891 67.9272 13.5156 67.9317 12.8277C67.9347 12.1504 68.4976 11.5859 69.1765 11.5829Z" fill="#C4C4C4"/>
<path d="M53.9926 85.189C36.9973 85.189 20.0019 85.189 3.00656 85.189C2.679 85.0677 2.34169 84.9673 2.02528 84.8209C0.893466 84.2967 0.327558 83.3292 0 82.1832C0 75.3184 0 68.4535 0 61.5873C0.444642 60.5459 1.24611 60.1918 2.35145 60.2378C3.75925 60.2963 5.16984 60.2517 6.58042 60.2517C6.75605 60.2517 6.93168 60.2517 7.12542 60.2517C7.12542 59.9394 7.12542 59.7178 7.12542 59.4961C7.12542 50.4243 7.12542 41.354 7.12542 32.2822C7.12542 29.604 8.53183 28.189 11.1955 28.189C22.7339 28.189 34.2723 28.189 45.8093 28.189C48.4479 28.189 49.8724 29.6068 49.8724 32.2348C49.8724 41.3428 49.8724 50.4508 49.8724 59.5602C49.8724 59.7763 49.8724 59.9924 49.8724 60.2517C51.6398 60.2517 53.3417 60.2462 55.045 60.2531C56.266 60.2587 56.9936 60.9739 56.995 62.1854C57.0006 68.6222 57.0076 75.059 56.9783 81.4958C56.9755 82.0856 56.7957 82.7074 56.5587 83.2539C56.0834 84.3622 55.0938 84.8683 53.9926 85.189ZM46.2888 31.7956C34.3866 31.7956 22.5457 31.7956 10.716 31.7956C10.716 41.294 10.716 50.7478 10.716 60.2503C11.2025 60.2503 11.6638 60.2698 12.121 60.2461C13.133 60.1946 13.7964 60.6477 14.2341 61.5525C15.1067 63.3523 16.0238 65.1313 16.9006 66.9283C17.0595 67.2546 17.2295 67.3856 17.6087 67.3842C24.8609 67.3717 32.1132 67.3703 39.3655 67.3856C39.7683 67.387 39.9453 67.2392 40.1112 66.8991C40.9991 65.0853 41.9232 63.291 42.8097 61.4772C43.2223 60.6323 43.8593 60.2183 44.7973 60.2461C45.2894 60.2615 45.7842 60.2489 46.2874 60.2489C46.2888 50.7241 46.2888 41.2703 46.2888 31.7956ZM3.58362 81.5865C20.2277 81.5865 36.8175 81.5865 53.3905 81.5865C53.3905 75.6418 53.3905 69.7362 53.3905 63.8138C50.8788 63.8138 48.4116 63.8054 45.9459 63.8305C45.773 63.8319 45.5319 64.041 45.4427 64.2139C44.5311 65.9942 43.6209 67.776 42.7581 69.58C42.3037 70.5294 41.6263 70.9505 40.5684 70.9477C32.5188 70.9296 24.4679 70.9296 16.4183 70.9477C15.3855 70.9505 14.7066 70.5489 14.2592 69.6204C13.3908 67.8192 12.4695 66.043 11.5941 64.2446C11.4311 63.9086 11.2415 63.8026 10.8749 63.8054C8.72279 63.8235 6.57206 63.8138 4.41994 63.8138C4.14813 63.8138 3.87633 63.8138 3.58501 63.8138C3.58362 69.771 3.58362 75.6627 3.58362 81.5865Z" fill="#C4C4C4"/>
<path d="M29.0184 42.1889C25.0446 42.1889 21.0708 42.1897 17.097 42.1865C16.8094 42.1865 16.5094 42.1779 16.2354 42.1326C15.4396 42.0019 14.9424 41.5756 15.0054 41.1133C15.0684 40.6432 15.7135 40.2568 16.5436 40.1989C16.7423 40.1856 16.9436 40.1895 17.145 40.1895C25.0378 40.1895 32.9306 40.1887 40.822 40.1895C42.1863 40.1895 42.9986 40.5618 43 41.1868C43.0027 41.8126 42.1891 42.1881 40.8289 42.1881C36.892 42.1889 32.9552 42.1889 29.0184 42.1889Z" fill="#C4C4C4"/>
<path d="M29.0013 49.1856C24.9736 49.1856 20.9459 49.1891 16.9195 49.1833C15.5528 49.1809 14.6804 48.2186 15.1104 47.1977C15.3624 46.5964 15.8842 46.2729 16.6196 46.2003C16.8004 46.1827 16.9839 46.1909 17.1661 46.1909C25.0571 46.1909 32.9482 46.1897 40.8379 46.192C41.0926 46.192 41.3528 46.1838 41.5993 46.2272C42.4854 46.3808 43.0825 47.0852 42.9907 47.84C42.899 48.5972 42.1813 49.1704 41.2487 49.1798C39.7368 49.1962 38.2235 49.1856 36.7116 49.1856C34.141 49.1856 31.5718 49.1856 29.0013 49.1856Z" fill="#C4C4C4"/>
<path d="M23.5006 57.1842C21.2536 57.1842 19.0078 57.1983 16.7608 57.178C15.4777 57.167 14.652 55.7454 15.1439 54.419C15.4498 53.5942 16.0202 53.1958 16.7847 53.1942C18.4653 53.1911 20.146 53.1927 21.8266 53.1927C24.6215 53.1927 27.4163 53.1818 30.2112 53.1974C31.5009 53.2052 32.3413 54.5987 31.8653 55.9297C31.5594 56.7843 30.9744 57.1842 30.1873 57.1842C27.9588 57.1842 25.7304 57.1842 23.5006 57.1842Z" fill="#C4C4C4"/>
</svg>
