<svg width="17" height="18" viewBox="0 0 17 18" fill="none" xmlns="http://www.w3.org/2000/svg">
<path d="M7.10209 15.4146C8.6746 15.4163 10.2029 14.8769 11.4458 13.8816L15.1594 17.721C15.3271 17.8943 15.5546 17.9916 15.7918 17.9916C16.0289 17.9916 16.2564 17.8943 16.4241 17.721C16.5918 17.5477 16.686 17.3127 16.686 17.0676C16.686 16.8225 16.5918 16.5875 16.4241 16.4142L12.7083 12.5772C13.6914 11.2674 14.2161 9.65215 14.197 7.99474C14.1779 6.33733 13.6161 4.73547 12.603 3.45025C11.59 2.16504 10.1855 1.27224 8.61854 0.917384C7.05154 0.562527 5.41442 0.766534 3.974 1.49615C2.53358 2.22577 1.37481 3.43798 0.686554 4.9352C-0.00170564 6.43242 -0.17887 8.12637 0.183938 9.74095C0.546746 11.3555 1.42813 12.7955 2.68444 13.8263C3.94075 14.857 5.4979 15.4177 7.10209 15.4169V15.4146ZM3.35049 4.2127C4.09268 3.44594 5.03826 2.9238 6.06765 2.71229C7.09704 2.50078 8.16401 2.60942 9.13365 3.02445C10.1033 3.43948 10.932 4.14228 11.5151 5.04397C12.0982 5.94565 12.4094 7.00574 12.4094 8.09018C12.4094 9.17462 12.0982 10.2347 11.5151 11.1364C10.932 12.0381 10.1033 12.7409 9.13365 13.1559C8.16401 13.5709 7.09704 13.6796 6.06765 13.4681C5.03826 13.2566 4.09268 12.7344 3.35049 11.9677C2.85549 11.4597 2.46264 10.8556 2.19455 10.1902C1.92647 9.5247 1.78845 8.811 1.78845 8.09018C1.78845 7.36936 1.92647 6.65567 2.19455 5.9902C2.46264 5.32472 2.85549 4.72063 3.35049 4.2127Z" fill="#7A7A7A"/>
</svg>
