<svg width="19" height="19" viewBox="0 0 19 19" fill="none" xmlns="http://www.w3.org/2000/svg">
<path d="M13.6186 15.2666C13.5368 16.4102 13.4667 17.3167 13.4083 18.2231C13.2331 18.2231 13.0695 18.2789 13.0228 18.2092C10.5576 14.5414 7.12276 15.2387 3.83979 15.2527C1.04751 15.2666 1.01246 15.2108 1.01246 11.9336C1.01246 9.0886 1.04751 6.2297 1.00078 3.38474C0.977409 1.80886 1.47979 1 2.83504 1C7.28633 1.01395 11.7376 1 16.1889 1C17.4273 1 18.0115 1.71124 17.9998 3.20345C17.9764 6.45283 17.9764 9.71616 17.9998 12.9655C18.0115 14.5275 17.4974 15.3503 16.1188 15.2666C15.3477 15.2248 14.5649 15.2666 13.6186 15.2666ZM13.0812 14.6391C14.1093 14.6391 14.9972 14.5972 15.8735 14.653C17.0184 14.7227 17.4507 14.1649 17.4156 12.7703C17.3572 9.66038 17.3689 6.53651 17.4156 3.41263C17.439 2.11567 17.0301 1.64151 15.9436 1.65546C11.6675 1.69729 7.39148 1.71124 3.10375 1.65546C1.91206 1.64151 1.56157 2.21329 1.58493 3.55209C1.63167 6.34126 1.59662 9.11649 1.59662 11.9057C1.59662 14.6391 1.6083 14.5554 3.88652 14.6669C6.8891 14.8064 10.1721 13.6071 12.6022 16.9401C12.6372 16.9959 12.8008 16.9122 12.9293 16.8843C12.976 16.2289 13.0111 15.5734 13.0812 14.6391Z" fill="#FF416C" stroke="#FF416C"/>
</svg>
