<svg width="21" height="21" viewBox="0 0 21 21" fill="none" xmlns="http://www.w3.org/2000/svg">
<path d="M10.5 20.2731C5.26178 20.2731 1 15.95 1 10.6365C1 5.32303 5.26178 1 10.5 1C15.7382 1 20 5.32303 20 10.6365C20 15.95 15.7382 20.2731 10.5 20.2731ZM10.5 1.80304C5.6982 1.80304 1.79167 5.76572 1.79167 10.6365C1.79167 15.5073 5.6982 19.47 10.5 19.47C15.3018 19.47 19.2083 15.5073 19.2083 10.6365C19.2083 5.76572 15.3018 1.80304 10.5 1.80304Z" fill="#FF416C" stroke="#FF416C" stroke-width="0.5"/>
<path d="M14.2814 16.9404C14.2184 16.9404 14.1552 16.9251 14.0972 16.8944L10.5001 14.976L6.90304 16.8944C6.76968 16.9655 6.60849 16.9538 6.48614 16.8638C6.36438 16.774 6.3033 16.6217 6.32862 16.4711L7.01553 12.4081L4.10535 9.53056C3.9975 9.42371 3.95865 9.26413 4.00523 9.11885C4.05181 8.97357 4.17571 8.86751 4.32492 8.84555L8.34663 8.25288L10.1451 4.55627C10.2784 4.28219 10.7218 4.28219 10.8552 4.55627L12.6536 8.25288L16.6753 8.84555C16.8245 8.86751 16.9484 8.97357 16.995 9.11885C17.0416 9.26413 17.0027 9.42371 16.8949 9.53056L13.9847 12.4081L14.6716 16.4711C14.6969 16.6217 14.6359 16.774 14.5141 16.8638C14.4451 16.9146 14.3633 16.9404 14.2814 16.9404ZM10.5001 14.1208C10.5633 14.1208 10.6267 14.1361 10.6843 14.1669L13.7557 15.8049L13.1691 12.3357C13.1472 12.2055 13.1898 12.0726 13.2829 11.9803L15.7679 9.52331L12.3339 9.01729C12.2048 8.99828 12.0935 8.91613 12.0357 8.79752L10.5001 5.64124L8.96453 8.79752C8.90674 8.91613 8.79542 8.99828 8.66631 9.01729L5.23235 9.52331L7.71732 11.9803C7.81048 12.0726 7.853 12.2055 7.83116 12.3357L7.24456 15.8049L10.3159 14.1669C10.3735 14.1361 10.4369 14.1208 10.5001 14.1208Z" fill="#FF416C" stroke="#FF416C" stroke-width="0.5"/>
</svg>
