<svg width="14" height="15" viewBox="0 0 14 15" fill="none" xmlns="http://www.w3.org/2000/svg">
<g clip-path="url(#clip0)">
<path d="M0.428081 15C0.086806 14.874 -0.0107011 14.6213 0.000906841 14.2735C0.028766 13.4373 0.152585 12.6227 0.47606 11.846C0.997646 10.5948 1.90616 9.7246 3.13119 9.16739C4.01417 8.76628 4.949 8.58003 5.90782 8.49811C6.80705 8.42082 7.70551 8.43474 8.6001 8.55221C9.75161 8.70368 10.8451 9.02518 11.807 9.70296C12.9074 10.4781 13.5629 11.547 13.8276 12.8515C13.922 13.3175 13.939 13.799 13.9924 14.2735C14.0311 14.6205 13.9111 14.874 13.5699 15C9.18979 15 4.80893 15 0.428081 15ZM12.854 13.8995C12.8618 13.8832 12.8703 13.874 12.8695 13.8662C12.8595 13.7495 12.8525 13.6328 12.837 13.5169C12.7418 12.8121 12.5298 12.1474 12.1243 11.5562C11.5594 10.7316 10.7584 10.2347 9.82281 9.9325C8.91661 9.63959 7.98101 9.54917 7.0338 9.54685C6.03706 9.54453 5.05347 9.63804 4.10162 9.95645C3.44074 10.1775 2.84022 10.5059 2.34108 10.999C1.7305 11.6018 1.38071 12.3414 1.22207 13.1761C1.17718 13.4126 1.1501 13.6522 1.11373 13.8987C5.05038 13.8995 8.95376 13.8995 12.854 13.8995Z" fill="#FF416C"/>
<path d="M10.6361 3.82169C10.592 5.02577 10.1145 6.10775 9.0876 6.92695C7.9949 7.79872 6.34502 7.893 5.18964 7.11321C3.7665 6.1518 3.21164 4.78388 3.41749 3.1045C3.54131 2.09904 4.0273 1.28061 4.85224 0.681656C5.64468 0.106665 6.54159 -0.0896355 7.50427 0.0363369C8.54667 0.173129 9.38167 0.671609 9.98296 1.53796C10.4395 2.19564 10.6315 2.93757 10.6361 3.82169ZM4.45989 3.62385C4.46995 4.44151 4.69592 5.1046 5.17417 5.68037C6.07185 6.76079 7.67762 6.84426 8.66352 5.84653C9.37858 5.12315 9.64865 4.24057 9.49466 3.24516C9.20136 1.3463 7.21872 0.607464 5.73677 1.41431C4.84605 1.89965 4.48852 2.71654 4.45989 3.62385Z" fill="#FF416C"/>
</g>
<defs>
<clipPath id="clip0">
<rect width="14" height="15" fill="white"/>
</clipPath>
</defs>
</svg>
