<svg width="11" height="14" viewBox="0 0 11 14" fill="none" xmlns="http://www.w3.org/2000/svg">
<path d="M5.45463 0C5.67337 0.0454934 5.89445 0.0766205 6.10848 0.138875C7.57612 0.56747 8.58277 1.9203 8.59688 3.47666C8.60158 4.01539 8.59688 4.55174 8.59688 5.09047C8.59688 5.13836 8.59688 5.18864 8.59688 5.23893C8.82267 5.2509 9.03905 5.24611 9.24838 5.27724C9.83873 5.36583 10.295 5.89738 10.3138 6.50795C10.3232 6.8312 10.3162 7.15444 10.3162 7.47768C10.3162 9.20404 10.3185 10.9328 10.3162 12.6591C10.3162 13.2865 9.93986 13.7965 9.35892 13.9545C9.23897 13.988 9.11196 14 8.98731 14C6.43541 14.0024 3.88351 14.0024 1.33161 14.0024C0.56016 14.0024 0.00274055 13.4325 0.00274055 12.6472C0.000388567 10.6287 0.000388567 8.61502 0.00274055 6.60133C0.00274055 5.81837 0.562512 5.25329 1.33631 5.2509C1.46097 5.2509 1.58562 5.2509 1.72204 5.2509C1.72204 5.17907 1.72204 5.1216 1.72204 5.06414C1.72909 4.42244 1.69382 3.77595 1.75026 3.13905C1.88197 1.62579 2.97094 0.409441 4.42917 0.0814093C4.57264 0.0478878 4.71846 0.0263383 4.86193 0C5.0595 0 5.25707 0 5.45463 0ZM5.15828 6.12485C3.89057 6.12485 2.6252 6.12485 1.35748 6.12485C1.0282 6.12485 0.861214 6.29485 0.861214 6.62767C0.861214 8.62459 0.861214 10.6191 0.861214 12.616C0.861214 12.9584 1.0282 13.126 1.36454 13.126C3.89292 13.126 6.42365 13.126 8.95203 13.126C9.29072 13.126 9.45535 12.9584 9.45535 12.616C9.45535 10.6239 9.45535 8.63417 9.45535 6.64204C9.45535 6.29006 9.29307 6.12724 8.94497 6.12724C7.68196 6.12485 6.41895 6.12485 5.15828 6.12485ZM7.7337 5.24371C7.7337 4.59962 7.75487 3.9699 7.729 3.34257C7.67255 2.02565 6.58594 0.936207 5.29705 0.878741C3.80354 0.811698 2.58522 1.99213 2.58051 3.51257C2.57816 4.05131 2.58051 4.58765 2.58051 5.12639C2.58051 5.1647 2.58522 5.2054 2.58757 5.24611C4.30451 5.24371 6.01441 5.24371 7.7337 5.24371Z" fill="#FF416C"/>
</svg>
