<svg width="18" height="12" viewBox="0 0 18 12" fill="none" xmlns="http://www.w3.org/2000/svg">
<g clip-path="url(#clip0)">
<path d="M0 5.74352C0.0869138 5.59573 0.157732 5.43644 0.262351 5.30343C1.52984 3.68267 3.00094 2.29263 4.76899 1.25318C5.93267 0.569244 7.17441 0.109454 8.5264 0.0166751C9.76412 -0.0678933 10.9487 0.180065 12.085 0.67598C13.7123 1.38619 15.1045 2.44699 16.3422 3.72126C16.8564 4.25002 17.3256 4.82558 17.8012 5.39293C18.0708 5.71478 18.0612 5.97998 17.8036 6.31251C16.5257 7.96446 15.0409 9.3816 13.2463 10.4375C11.8372 11.2667 10.3339 11.7676 8.68413 11.6929C7.55103 11.642 6.48232 11.33 5.46832 10.8217C3.33894 9.75436 1.63446 8.16809 0.175437 6.28623C0.101399 6.19017 0.0579425 6.06865 0 5.95863C0 5.8872 0 5.81577 0 5.74352ZM16.6754 5.86257C16.3092 5.45861 15.9849 5.08093 15.6405 4.72459C14.4816 3.52421 13.1988 2.49461 11.6714 1.81889C10.9101 1.48225 10.1182 1.26057 9.28207 1.22034C8.00492 1.15876 6.83078 1.52249 5.71217 2.11282C4.46238 2.77213 3.38078 3.66215 2.39657 4.67861C2.03604 5.05137 1.69723 5.4463 1.33107 5.85025C1.68677 6.2419 2.01431 6.62369 2.36196 6.98331C3.51759 8.17794 4.79474 9.20507 6.31654 9.87916C7.07784 10.2166 7.86972 10.4391 8.70506 10.481C9.98221 10.545 11.1563 10.1813 12.2766 9.59425C13.363 9.02444 14.3263 8.27729 15.2035 7.41682C15.7048 6.92583 16.1708 6.3979 16.6754 5.86257Z" fill="#FF416C"/>
<path d="M12.554 5.85408C12.5508 7.86156 10.9477 9.49053 8.98654 9.47903C7.02132 9.46754 5.43997 7.8476 5.44239 5.84834C5.4456 3.84086 7.04788 2.21189 9.00987 2.22339C10.9743 2.23488 12.5564 3.85564 12.554 5.85408ZM11.3678 5.84752C11.3638 4.51248 10.3047 3.43198 8.99861 3.43116C7.6941 3.43034 6.63343 4.51002 6.62618 5.84587C6.61894 7.17844 7.70134 8.28194 9.00585 8.27126C10.3176 8.26059 11.3718 7.17844 11.3678 5.84752Z" fill="#FF416C"/>
</g>
<defs>
<clipPath id="clip0">
<rect width="18" height="11.7" fill="white"/>
</clipPath>
</defs>
</svg>
