<svg width="12" height="13" viewBox="0 0 12 13" fill="none" xmlns="http://www.w3.org/2000/svg">
<path d="M8.59752 5.75283L10.6492 5.75054C10.8513 5.75054 11.0391 5.63188 11.1175 5.45161C11.196 5.27133 11.1508 5.07737 11.0082 4.92676M8.59752 5.75283L11.0082 4.92676M8.59752 5.75283L8.59752 12.5208C8.59752 12.7901 8.3788 13 8.09827 13L3.12242 13C2.84189 13 2.62317 12.7901 2.62317 12.5208L2.62318 6.25283L8.59752 5.75283ZM11.0082 4.92676L10.6629 5.25376L10.6569 5.25943M11.0082 4.92676L10.6851 5.26339L10.6619 5.28747L10.6568 5.28256M10.6569 5.25943C10.6577 5.25567 10.6586 5.25315 10.6591 5.25209C10.6612 5.24728 10.6631 5.2455 10.6631 5.24551C10.6631 5.24551 10.6626 5.24603 10.6613 5.24686C10.6574 5.24932 10.6527 5.25054 10.6492 5.25054L10.6486 5.25054L10.6235 5.25057L10.6487 5.27473L10.6492 5.27524L10.6502 5.27619M10.6569 5.25943L10.6492 5.26675L10.6487 5.26726L10.6452 5.27058C10.6464 5.27193 10.6476 5.27322 10.6487 5.27443C10.6488 5.27463 10.649 5.27483 10.6492 5.27503C10.6495 5.27543 10.6499 5.27581 10.6502 5.27619M10.6569 5.25943C10.6566 5.26111 10.6563 5.26303 10.6561 5.26519C10.6554 5.27182 10.6559 5.27789 10.6568 5.28256M10.6502 5.27619C10.6566 5.28381 10.6584 5.28801 10.6584 5.28802C10.6583 5.28802 10.6577 5.28646 10.6569 5.28314C10.6569 5.28295 10.6569 5.28275 10.6568 5.28256M10.6502 5.27619L10.6568 5.28256M0.689525 5.25551L0.692316 5.25283L0.691546 5.25283M0.689525 5.25551C0.690169 5.25462 0.690842 5.25373 0.691546 5.25283M0.689525 5.25551L0.67058 5.2737L0.664219 5.26708L0.649908 5.25217M0.689525 5.25551C0.680824 5.26743 0.677495 5.27725 0.676252 5.28319C0.674502 5.29157 0.676682 5.29247 0.674375 5.28602C0.67315 5.28259 0.670717 5.27742 0.666277 5.27153C0.665613 5.27066 0.664926 5.26979 0.664219 5.26894C0.660063 5.26393 0.655183 5.25945 0.65003 5.25589C0.643928 5.25167 0.639937 5.25046 0.640295 5.25057C0.640619 5.25066 0.643649 5.25154 0.649908 5.25217M0.691546 5.25283C0.693139 5.25078 0.694888 5.24868 0.69681 5.24653L0.324253 4.91306L0.649908 5.25217M0.691546 5.25283L0.664219 5.25283C0.658286 5.25283 0.65355 5.25254 0.649908 5.25217M5.68709 0.512283C5.68987 0.514211 5.69283 0.516442 5.69593 0.519021L6.01569 0.134635L5.66945 0.495353L5.68709 0.512283ZM5.6157 0.522447C5.61973 0.519167 5.62347 0.516382 5.62691 0.514015L5.64643 0.49527L5.3001 0.134635L5.6157 0.522447ZM3.12317 12.5208L3.12317 12.5L3.12242 12.5C3.11502 12.5 3.11161 12.4987 3.11115 12.4985C3.11049 12.4982 3.11171 12.4986 3.11384 12.5007C3.116 12.5027 3.11863 12.5061 3.12065 12.5108C3.12148 12.5127 3.12204 12.5145 3.12242 12.516C3.12304 12.5184 3.12317 12.5201 3.12317 12.5208ZM8.09827 12.5L8.09752 12.5L8.09752 12.5208C8.09752 12.5201 8.09766 12.5184 8.09827 12.516C8.09865 12.5145 8.09922 12.5127 8.10004 12.5108C8.10206 12.5061 8.10469 12.5027 8.10686 12.5007C8.10859 12.499 8.10973 12.4984 8.10973 12.4984C8.10973 12.4984 8.10967 12.4985 8.10955 12.4985C8.10909 12.4987 8.10568 12.5 8.09827 12.5Z" stroke="#FF416C"/>
</svg>
